<?xml version="1.0" encoding="iso-8859-1"?>
<!-- Generator: Adobe Illustrator 19.0.0, SVG Export Plug-In . SVG Version: 6.00 Build 0)  -->
<svg version="1.1" id="Capa_1" xmlns="http://www.w3.org/2000/svg" xmlns:xlink="http://www.w3.org/1999/xlink" x="0px" y="0px"
	 viewBox="0 0 512.001 512.001" style="enable-background:new 0 0 512.001 512.001;" xml:space="preserve">
<rect x="196.001" y="430" style="fill:#D8D8E4;" width="120" height="72"/>
<path style="fill:#EDF2FA;" d="M74.002,126.001h-30.5c-11.046,0-20,8.954-20,20v264c0,11.046,8.954,20,20,20h425
	c11.046,0,20-8.954,20-20v-264c0-11.046-8.954-20-20-20h-13.5C455.002,126.001,74.002,126.001,74.002,126.001z"/>
<rect x="74.001" y="87.63" style="fill:#FFB954;" width="92.76" height="268.18"/>
<rect x="228.491" y="185.48" style="fill:#FF5D5D;" width="50.5" height="170.32"/>
<path style="fill:#7D9BFF;" d="M345.226,355.806V200.995c0-9.938,8.056-17.994,17.994-17.994h56.775
	c9.938,0,17.994,8.056,17.994,17.994v154.811H345.226z"/>
<path style="fill:#72D8FF;" d="M23.502,358.001v52c0,11.046,8.954,20,20,20h425c11.046,0,20-8.954,20-20v-52H23.502z"/>
<polygon style="fill:#FFCDAC;" points="166.765,87.628 120.384,10.001 74.002,87.628 "/>
<polygon style="fill:#8C6C54;" points="95.24,52.083 145.527,52.083 120.384,10.001 "/>
<rect x="228.491" y="147.47" style="fill:#EDF2FA;" width="50.5" height="38.01"/>
<path style="fill:#B28A67;" d="M221.646,143.538c1.163,1.406,2.377,2.713,3.629,3.934h56.645c1.252-1.221,2.465-2.528,3.629-3.934
	l0,0c17.646-21.331,17.646-55.915,0-77.245l-1.046-1.264c-13.702-16.562-21.802-31.632-22.72-55.028l0,0l-37.735,48.015
	C204.504,82.885,203.528,117.611,221.646,143.538L221.646,143.538z"/>
<path style="fill:#EDF2FA;" d="M419.996,183.001h-56.775c-9.938,0-17.994,8.056-17.994,17.994v14.672h92.764v-14.672
	C437.99,191.057,429.934,183.001,419.996,183.001z"/>
<path style="fill:#ADE5FF;" d="M418.892,183.001l29.11-62.088l-6.106-7.191c-24.892-29.315-38.481-65.942-38.481-103.721l0,0
	h-10.809h-10.809l0,0c0,37.779-13.589,74.406-38.481,103.721l-6.106,7.191l29.11,62.088H418.892z"/>
<circle style="fill:#8C6C54;" cx="392.601" cy="121.16" r="16.196"/>
<path d="M468.502,116.001h-11.814c-0.308-0.544-0.649-1.073-1.063-1.561l-6.106-7.191c-23.282-27.418-36.104-61.955-36.104-97.248
	c0-5.522-4.477-10-10-10h-21.618c-5.523,0-10,4.478-10,10c0,35.294-12.822,69.83-36.104,97.248l-6.106,7.191
	c-2.534,2.984-3.093,7.173-1.431,10.718l23.589,50.314c-9.727,4.391-16.517,14.176-16.517,25.523v147.006H288.99V185.483v-28.011
	h5.904c5.523,0,10-4.478,10-10c0-3.473-1.772-6.53-4.459-8.323c5.428-10.172,8.349-21.953,8.349-34.234
	c0-16.911-5.515-32.892-15.529-44.997l-1.045-1.264c-11.995-14.5-19.597-27.762-20.432-49.045c-0.164-4.188-2.922-7.829-6.909-9.121
	c-3.987-1.294-8.357,0.039-10.946,3.334l-37.735,48.015c-10.925,13.9-16.962,30.59-17.458,48.263
	c-0.383,13.643,2.577,26.88,8.599,38.878c-2.842,1.764-4.742,4.903-4.742,8.494c0,5.522,4.477,10,10,10h5.904v28.011v162.519
	h-41.724v-29c0-5.522-4.477-10-10-10s-10,4.478-10,10v29h-40.408v-94.048c0-5.522-4.477-10-10-10s-10,4.478-10,10v94.048H84.002
	V97.628h40.864v114.355c0,5.522,4.477,10,10,10s10-4.478,10-10V97.628h11.9v140.04c0,5.522,4.477,10,10,10s10-4.478,10-10V87.628
	c0-1.875-0.525-3.622-1.423-5.121c0.003-0.003,0.005-0.005,0.007-0.008L128.968,4.872c-1.805-3.021-5.065-4.871-8.584-4.871
	s-6.779,1.85-8.584,4.871L65.417,82.499c0.003,0.002,0.005,0.004,0.008,0.006c-0.898,1.5-1.424,3.248-1.424,5.123v28.373h-20.5
	c-16.542,0-30,13.458-30,30v264c0,16.542,13.458,30,30,30h142.5v52h-17.5c-5.523,0-10,4.478-10,10s4.477,10,10,10h175
	c5.523,0,10-4.478,10-10s-4.477-10-10-10h-17.5v-52h142.5c16.542,0,30-13.458,30-30v-264
	C498.502,129.459,485.044,116.001,468.502,116.001z M478.502,146.001v202h-30.511V200.995c0-10.706-6.043-20.022-14.896-24.73
	l19.072-40.678c0.899,0.266,1.85,0.414,2.835,0.414h13.5C474.016,136.001,478.502,140.487,478.502,146.001z M363.22,193.001h3.098
	h52.574h1.104c4.408,0,7.995,3.586,7.995,7.994v4.673h-72.764v-4.673C355.226,196.587,358.812,193.001,363.22,193.001z
	 M398.801,121.163c0,3.416-2.779,6.195-6.196,6.195s-6.196-2.779-6.196-6.195c0-3.417,2.779-6.196,6.196-6.196
	S398.801,117.746,398.801,121.163z M350.937,120.194c14.07-16.569,24.756-35.45,31.668-55.542v32.303
	c-9.497,3.938-16.196,13.304-16.196,24.208c0,14.444,11.751,26.195,26.196,26.195s26.196-11.751,26.196-26.195
	c0-10.904-6.699-20.27-16.196-24.208V64.652c6.912,20.093,17.598,38.974,31.667,55.543l1.947,2.293l-23.683,50.514h-39.862
	l-23.683-50.515L350.937,120.194z M355.226,225.668h72.764v122.333h-11.892v-76.284c0-5.522-4.477-10-10-10s-10,4.478-10,10v76.284
	h-40.872V225.668z M238.489,157.472h30.499v18.011h-30.499V157.472z M231.91,64.195l23.618-30.052
	c4.234,14.323,11.735,25.733,21.269,37.259l1.045,1.264c14.71,17.782,14.71,46.716-0.001,64.499
	c-0.084,0.103-0.17,0.204-0.256,0.307h-47.977c0-0.001-0.001-0.002-0.002-0.002C214.148,115.038,215.054,85.643,231.91,64.195z
	 M238.489,195.483h30.499v152.519h-30.499V195.483z M100.913,62.083h38.94l9.288,15.545H91.625L100.913,62.083z M120.383,29.497
	l7.52,12.586h-15.04L120.383,29.497z M43.502,136.001h20.5v212h-30.5v-202C33.502,140.487,37.987,136.001,43.502,136.001z
	 M306.002,492.001h-100v-52h100V492.001z M468.502,420.001h-425c-5.514,0-10-4.486-10-10v-6h69.382c5.523,0,10-4.478,10-10
	s-4.477-10-10-10H33.502v-16h445v42C478.502,415.516,474.016,420.001,468.502,420.001z"/>
<path d="M166.761,262.801c-2.63,0-5.2,1.07-7.07,2.93c-1.86,1.86-2.93,4.44-2.93,7.07c0,2.64,1.07,5.21,2.93,7.07
	c1.86,1.859,4.44,2.93,7.07,2.93c2.64,0,5.22-1.07,7.07-2.93c1.87-1.86,2.93-4.44,2.93-7.07s-1.06-5.21-2.93-7.07
	C171.971,263.871,169.391,262.801,166.761,262.801z"/>
<path d="M137.881,384.001c-2.63,0-5.21,1.069-7.07,2.93c-1.86,1.86-2.93,4.44-2.93,7.07s1.07,5.21,2.93,7.069
	c1.86,1.86,4.44,2.931,7.07,2.931c2.64,0,5.21-1.07,7.07-2.931c1.86-1.859,2.93-4.439,2.93-7.069s-1.07-5.21-2.93-7.07
	C143.091,385.07,140.511,384.001,137.881,384.001z"/>
<g>
</g>
<g>
</g>
<g>
</g>
<g>
</g>
<g>
</g>
<g>
</g>
<g>
</g>
<g>
</g>
<g>
</g>
<g>
</g>
<g>
</g>
<g>
</g>
<g>
</g>
<g>
</g>
<g>
</g>
</svg>
