<svg xmlns="http://www.w3.org/2000/svg" viewBox="0 0 13.8 16"><defs><style>.cls-1{fill:#1DBF73;}.cls-2{fill:white;}</style></defs><g id="Layer_2" data-name="Layer 2"><g id="Layer_1-2" data-name="Layer 1"><path class="cls-1" d="M13.23,1.89A11.66,11.66,0,0,1,6.9,0,11.66,11.66,0,0,1,.57,1.89S-2.8,12.32,6.9,16C16.6,12.32,13.23,1.89,13.23,1.89Z"/><path class="cls-2" d="M12.55,8.78a2.07,2.07,0,0,0-2-2.12H5a.8.8,0,0,1,.77-1H10.4l.75-2.06h-3V2.28L6.9,1,5.62,2.28V3.56h0A3.29,3.29,0,0,0,2.33,6.9V8.73h8.21v1H1.8v2.07H5.62v1.28L6.9,14.39l1.28-1.28V11.83h2.35a2.06,2.06,0,0,0,2-2Z"/></g></g></svg>